<svg xmlns="http://www.w3.org/2000/svg" viewBox="0 0 25.14 23.47">
  <defs>
    <style>
      .cls-4{fill-rule:evenodd}.cls-2{fill:#4d443c}.cls-4{fill:#78c17c}
    </style>
  </defs>
  <g id="Layer_2" data-name="Layer 2">
    <g id="Layer_1-2" data-name="Layer 1">
      <path d="M7.16 4.58h13.32l-2.67 17.89H9.82L7.16 4.58z" style="fill-rule:evenodd;fill:#e6e6e6"/>
      <path d="M13 10.88a.29.29 0 1 1-.5.27l-5-9.38L3.22.56A.28.28 0 1 1 3.37 0L7.8 1.24a.28.28 0 0 1 .2.15Z" class="cls-2"/>
      <path d="m19.83 8.92-2.02 13.55H9.82L7.81 8.92h12.02z" style="fill:#fb7f16;fill-rule:evenodd"/>
      <path d="M13.82 4.86H7.49l2.58 17.32h7.5l2.57-17.32Zm-6.66-.57h13.31a.29.29 0 0 1 .29.29.27.27 0 0 1 0 .06L18.1 22.51a.29.29 0 0 1-.28.24h-8a.29.29 0 0 1-.28-.26L6.88 4.62a.29.29 0 0 1 .24-.32ZM5 19.8a.53.53 0 0 0-.31-.09h-.15a.57.57 0 0 1-.46-.71.54.54 0 0 0 0-.14.55.55 0 0 0 0-.11.52.52 0 0 0-.23-.27.53.53 0 0 0-.35-.06.57.57 0 0 1-.57-.25.78.78 0 0 0-.91-.3H2a.77.77 0 0 0-.46 1 .75.75 0 0 0 .22.32.56.56 0 0 1 .16.21.57.57 0 0 1-.3.75.77.77 0 0 0 .57 1.44h.09l.08-.05a.57.57 0 0 1 .64-.17.52.52 0 0 0 .2.05.53.53 0 0 0 .4-.16.52.52 0 0 0 .12-.19.57.57 0 0 1 .74-.33.53.53 0 0 0 .19 0h.22a.53.53 0 0 0 .29-.63v-.07A.52.52 0 0 0 5 19.8m.22-1.15a1.66 1.66 0 0 1 1 1 1.67 1.67 0 0 1-1 2.14 1.67 1.67 0 0 1-.59.1h-.04l-.14.17a1.68 1.68 0 0 1-1.26.5h-.31l-.25.11a1.91 1.91 0 0 1-2-3.16 2 2 0 0 1-.1-.23 1.91 1.91 0 0 1 3.17-2 1.67 1.67 0 0 1 1.48 1.09v.06a1.65 1.65 0 0 1 .02.22Z" class="cls-2"/>
      <path d="M4.64 19.14a1.1 1.1 0 1 1-.35 2.12 1.1 1.1 0 0 1-1.51.63 1.34 1.34 0 1 1-1.39-2.26 1.34 1.34 0 1 1 2-1.77 1.1 1.1 0 0 1 1.26 1.28" class="cls-4"/>
      <path d="M1.26 19.88a.28.28 0 0 1 .27-.5 3.23 3.23 0 0 0 .6.28 1.24 1.24 0 0 0 .59 0 .29.29 0 0 1 .1.56 1.79 1.79 0 0 1-.85 0 3.7 3.7 0 0 1-.71-.32M3.27 18.41a.29.29 0 0 1 .51-.25 1.2 1.2 0 0 1 .18.64 1.26 1.26 0 0 1-.25.59.29.29 0 0 1-.48-.31.9.9 0 0 0 .16-.33.8.8 0 0 0-.12-.34M20.35 16.13a.28.28 0 1 1-.56 0 6.42 6.42 0 0 1 .2-1.46 4.23 4.23 0 0 1 .64-1.37.28.28 0 0 1 .39-.06.29.29 0 0 1 .06.4 3.67 3.67 0 0 0-.55 1.19 5.87 5.87 0 0 0-.18 1.33" class="cls-2"/>
      <path d="M17.95 14.5a2.36 2.36 0 0 1 2.13 1.62 2.36 2.36 0 0 1 2.12-1.62c4.76 0 2.31 8.69-.93 8.69a1.33 1.33 0 0 1-1.19-.91 1.33 1.33 0 0 1-1.19.91c-2.82 0-5.7-8.69-.93-8.69" class="cls-4"/>
      <path d="M19 15.16a1.77 1.77 0 0 0-1.08-.38 2 2 0 0 0-2.1 1.45 4.25 4.25 0 0 0-.15 1.54 7.46 7.46 0 0 0 .33 1.75c.57 1.79 1.72 3.38 2.83 3.38a.87.87 0 0 0 .53-.19 1.25 1.25 0 0 0 .4-.54A.28.28 0 0 1 20 22a.29.29 0 0 1 .37.16 1.25 1.25 0 0 0 .4.54.87.87 0 0 0 .53.19c1.26 0 2.41-1.52 3-3.25a7.12 7.12 0 0 0 .34-1.74 4.43 4.43 0 0 0-.16-1.57 2.12 2.12 0 0 0-2.21-1.56 1.77 1.77 0 0 0-1.08.38 2.46 2.46 0 0 0-.78 1.06.29.29 0 0 1-.53 0 2.46 2.46 0 0 0-.88-1.05m-1.08-.94a2.34 2.34 0 0 1 1.43.5 2.88 2.88 0 0 1 .7.77 2.88 2.88 0 0 1 .7-.77 2.34 2.34 0 0 1 1.43-.5 2.65 2.65 0 0 1 2.75 2 5 5 0 0 1 .19 1.77 7.7 7.7 0 0 1-.36 1.88c-.62 1.94-2 3.65-3.51 3.65a1.44 1.44 0 0 1-.88-.31 1.7 1.7 0 0 1-.31-.31 1.7 1.7 0 0 1-.31.31 1.44 1.44 0 0 1-.88.31c-1.38 0-2.74-1.79-3.38-3.78a8 8 0 0 1-.37-1.88 4.8 4.8 0 0 1 .17-1.75 2.52 2.52 0 0 1 2.66-1.9Z" class="cls-2"/>
      <path d="M6.51 17.84h.22a2.49 2.49 0 0 1 .59.13l9.62 2a1.56 1.56 0 0 1 0 3.11h-.08l-10.41-.22a2.51 2.51 0 0 1 .07-5" style="fill:#f9b916;fill-rule:evenodd"/>
      <path d="M6.61 18.13h-.1a2.22 2.22 0 0 0-.06 4.45c3.29.09 7.28.4 10.5.27a1.27 1.27 0 0 0 0-2.54h-.06l-9.61-2-.28-.13h-.27Zm-.1-.57H7.09l.31.08 9.57 2a1.84 1.84 0 0 1 1.27.54 1.84 1.84 0 0 1-1.3 3.15c-3.46-.17-7-.19-10.51-.28a2.79 2.79 0 0 1 .07-5.59Z" class="cls-2"/>
      <path d="M7.14 19.79a.28.28 0 1 1-.56 0 2.5 2.5 0 0 1 .08-.56 1.68 1.68 0 0 1 .25-.52.28.28 0 0 1 .39-.06.29.29 0 0 1 .06.4 1.12 1.12 0 0 0-.16.34 1.93 1.93 0 0 0-.06.43M9.17 21.73a.28.28 0 1 1-.53.18 2.48 2.48 0 0 1-.13-.55 1.69 1.69 0 0 1 0-.6.28.28 0 0 1 .34-.2.29.29 0 0 1 .2.35 1.13 1.13 0 0 0 0 .4 1.9 1.9 0 0 0 .1.42M12.51 20.76a.28.28 0 1 1-.56.06 1.43 1.43 0 0 1 0-.33 1 1 0 0 1 .1-.32.28.28 0 0 1 .38-.12.29.29 0 0 1 .12.39.45.45 0 0 0 0 .14.88.88 0 0 0 0 .2" class="cls-2"/>
      <path d="M9.45 15.23a.29.29 0 0 1 .57-.08l.13.87a.29.29 0 1 1-.56.09Zm2.87-10a.29.29 0 1 1 0 .57H8.6l1 6.47a.29.29 0 1 1-.57.09L8 5.56a.28.28 0 0 1 0-.05.29.29 0 0 1 .29-.29Z" style="fill:#fff"/>
    </g>
  </g>
</svg>
